<svg width="79" height="79" viewBox="0 0 79 79" fill="none" xmlns="http://www.w3.org/2000/svg">
<path d="M39.4671 6.5835C21.2971 6.5835 6.58331 21.3302 6.58331 39.5002C6.58331 57.6702 21.2971 72.4168 39.4671 72.4168C57.67 72.4168 72.4166 57.6702 72.4166 39.5002C72.4166 21.3302 57.67 6.5835 39.4671 6.5835ZM39.5 65.8335C24.9508 65.8335 13.1666 54.0493 13.1666 39.5002C13.1666 24.951 24.9508 13.1668 39.5 13.1668C54.0491 13.1668 65.8333 24.951 65.8333 39.5002C65.8333 54.0493 54.0491 65.8335 39.5 65.8335ZM41.1458 23.0418H36.2083V42.7918L53.4896 53.1606L55.9583 49.1118L41.1458 40.3231V23.0418Z" fill="#FCD900"/>
</svg>
