<svg width="24" height="24" viewBox="0 0 24 24" fill="none" xmlns="http://www.w3.org/2000/svg">
<path d="M8 2C6.895 2 6 2.895 6 4V20C6 21.105 6.895 22 8 22H16C17.105 22 18 21.105 18 20V13H12C11.448 13 11 12.552 11 12C11 11.448 11.448 11 12 11H18V4C18 2.895 17.105 2 16 2H8ZM18 11V13H20V14.4004C20 14.7234 20.1951 15.0147 20.4941 15.1387C20.5931 15.1797 20.6978 15.1992 20.8008 15.1992C21.0088 15.1992 21.2112 15.1198 21.3652 14.9668L23.7656 12.5645C24.0776 12.2525 24.0776 11.7456 23.7656 11.4336L21.3652 9.0332C21.1362 8.8052 20.7941 8.73833 20.4941 8.86133C20.1951 8.98533 20 9.27661 20 9.59961V11H18Z" fill="white"/>
</svg>
