<svg width="66" height="66" viewBox="0 0 66 66" fill="none" xmlns="http://www.w3.org/2000/svg">
<path d="M32.9669 0C14.751 0 0 14.784 0 32.9999C0 51.2159 14.751 65.9998 32.9669 65.9998C51.2159 65.9998 65.9998 51.2159 65.9998 32.9999C65.9998 14.784 51.2159 0 32.9669 0ZM32.9999 59.3999C18.414 59.3999 6.59998 47.5859 6.59998 32.9999C6.59998 18.414 18.414 6.59998 32.9999 6.59998C47.5859 6.59998 59.3999 18.414 59.3999 32.9999C59.3999 47.5859 47.5859 59.3999 32.9999 59.3999ZM34.6499 16.5H29.6999V36.2999L47.0249 46.6949L49.4999 42.6359L34.6499 33.8249V16.5Z" fill="#FCD900"/>
</svg>
