<svg width="75" height="45" viewBox="0 0 75 45" fill="none" xmlns="http://www.w3.org/2000/svg">
<circle r="2.02682" transform="matrix(1.0001 0 0 -1.0001 2.02703 42.5676)" fill="white" fill-opacity="0.4"/>
<circle r="2.02682" transform="matrix(1.0001 0 0 -1.0001 16.2162 42.5676)" fill="white" fill-opacity="0.4"/>
<circle r="2.02682" transform="matrix(1.0001 0 0 -1.0001 30.4054 42.5676)" fill="white" fill-opacity="0.4"/>
<circle r="2.02682" transform="matrix(1.0001 0 0 -1.0001 44.5946 42.5676)" fill="white" fill-opacity="0.4"/>
<circle r="2.02682" transform="matrix(1.0001 0 0 -1.0001 58.7838 42.5676)" fill="white" fill-opacity="0.4"/>
<circle r="2.02682" transform="matrix(1.0001 0 0 -1.0001 72.973 42.5676)" fill="white" fill-opacity="0.4"/>
<circle r="2.02682" transform="matrix(1.0001 0 0 -1.0001 2.02703 32.4325)" fill="white" fill-opacity="0.4"/>
<circle r="2.02682" transform="matrix(1.0001 0 0 -1.0001 16.2162 32.4325)" fill="white" fill-opacity="0.4"/>
<circle r="2.02682" transform="matrix(1.0001 0 0 -1.0001 30.4054 32.4325)" fill="white" fill-opacity="0.4"/>
<circle r="2.02682" transform="matrix(1.0001 0 0 -1.0001 44.5946 32.4325)" fill="white" fill-opacity="0.4"/>
<circle r="2.02682" transform="matrix(1.0001 0 0 -1.0001 58.7838 32.4325)" fill="white" fill-opacity="0.4"/>
<circle r="2.02682" transform="matrix(1.0001 0 0 -1.0001 72.973 32.4325)" fill="white" fill-opacity="0.4"/>
<circle r="2.02682" transform="matrix(1.0001 0 0 -1.0001 2.02703 22.2972)" fill="white" fill-opacity="0.4"/>
<circle r="2.02682" transform="matrix(1.0001 0 0 -1.0001 16.2162 22.2972)" fill="white" fill-opacity="0.4"/>
<circle r="2.02682" transform="matrix(1.0001 0 0 -1.0001 30.4054 22.2972)" fill="white" fill-opacity="0.4"/>
<circle r="2.02682" transform="matrix(1.0001 0 0 -1.0001 44.5946 22.2972)" fill="white" fill-opacity="0.4"/>
<circle r="2.02682" transform="matrix(1.0001 0 0 -1.0001 58.7838 22.2972)" fill="white" fill-opacity="0.4"/>
<circle r="2.02682" transform="matrix(1.0001 0 0 -1.0001 72.973 22.2972)" fill="white" fill-opacity="0.4"/>
<circle r="2.02682" transform="matrix(1.0001 0 0 -1.0001 2.02703 12.1622)" fill="white" fill-opacity="0.4"/>
<circle r="2.02682" transform="matrix(1.0001 0 0 -1.0001 16.2162 12.1622)" fill="white" fill-opacity="0.4"/>
<circle r="2.02682" transform="matrix(1.0001 0 0 -1.0001 30.4054 12.1622)" fill="white" fill-opacity="0.4"/>
<circle r="2.02682" transform="matrix(1.0001 0 0 -1.0001 44.5946 12.1622)" fill="white" fill-opacity="0.4"/>
<circle r="2.02682" transform="matrix(1.0001 0 0 -1.0001 58.7838 12.1622)" fill="white" fill-opacity="0.4"/>
<circle r="2.02682" transform="matrix(1.0001 0 0 -1.0001 72.973 12.1622)" fill="white" fill-opacity="0.4"/>
<circle r="2.02682" transform="matrix(1.0001 0 0 -1.0001 2.02703 2.0271)" fill="white" fill-opacity="0.4"/>
<circle r="2.02682" transform="matrix(1.0001 0 0 -1.0001 16.2162 2.0271)" fill="white" fill-opacity="0.4"/>
<circle r="2.02682" transform="matrix(1.0001 0 0 -1.0001 30.4054 2.0271)" fill="white" fill-opacity="0.4"/>
<circle r="2.02682" transform="matrix(1.0001 0 0 -1.0001 44.5946 2.0271)" fill="white" fill-opacity="0.4"/>
<circle r="2.02682" transform="matrix(1.0001 0 0 -1.0001 58.7838 2.0271)" fill="white" fill-opacity="0.4"/>
<circle r="2.02682" transform="matrix(1.0001 0 0 -1.0001 72.973 2.0271)" fill="white" fill-opacity="0.4"/>
</svg>
