<svg width="11" height="11" viewBox="0 0 11 11" fill="none" xmlns="http://www.w3.org/2000/svg">
<g clip-path="url(#clip0_49_418)">
<path d="M10.0833 1.03099H8.59375V0.343491C8.59381 0.252323 8.55765 0.164865 8.49323 0.100356C8.42881 0.0358473 8.3414 -0.000427421 8.25023 -0.0004882C8.15906 -0.000548978 8.0716 0.0356092 8.00709 0.100032C7.94259 0.164454 7.90631 0.251864 7.90625 0.343033V1.03099H5.84375V0.343491C5.84378 0.298349 5.83492 0.253643 5.81767 0.211926C5.80042 0.170209 5.77513 0.132297 5.74323 0.100356C5.71133 0.0684145 5.67345 0.0430688 5.63176 0.0257659C5.59007 0.00846305 5.54537 -0.00045811 5.50023 -0.000488205C5.40906 -0.000548984 5.3216 0.0356091 5.25709 0.100032C5.19259 0.164454 5.15631 0.251864 5.15625 0.343033V1.03099H3.09375V0.343491C3.09378 0.298349 3.08492 0.253643 3.06767 0.211926C3.05042 0.170209 3.02513 0.132297 2.99323 0.100356C2.96133 0.0684145 2.92345 0.0430688 2.88176 0.0257659C2.84007 0.00846305 2.79537 -0.00045811 2.75023 -0.000488205C2.65906 -0.000548984 2.5716 0.0356091 2.50709 0.100032C2.44259 0.164454 2.40631 0.251864 2.40625 0.343033V1.03099H0.916667C0.673631 1.03099 0.440543 1.12751 0.268647 1.29931C0.0967523 1.47112 0.000121518 1.70416 0 1.9472V10.0826C0 10.3257 0.0965771 10.5589 0.268485 10.7308C0.440394 10.9027 0.673552 10.9993 0.916667 10.9993H10.0833C10.3264 10.9993 10.5596 10.9027 10.7315 10.7308C10.9034 10.5589 11 10.3257 11 10.0826V1.9472C10.9999 1.70416 10.9032 1.47112 10.7314 1.29931C10.5595 1.12751 10.3264 1.03099 10.0833 1.03099ZM10.3125 10.0831C10.3125 10.1438 10.2884 10.202 10.2455 10.245C10.2027 10.2879 10.1445 10.3121 10.0838 10.3122H0.916667C0.855888 10.3122 0.797598 10.2881 0.754621 10.2451C0.711644 10.2021 0.6875 10.1439 0.6875 10.0831V1.94766C0.687621 1.88696 0.711819 1.82879 0.754783 1.78591C0.797747 1.74303 0.855967 1.71895 0.916667 1.71895H2.40625V2.40645C2.40619 2.49762 2.44235 2.58508 2.50677 2.64958C2.57119 2.71409 2.6586 2.75037 2.74977 2.75043C2.84094 2.75049 2.9284 2.71433 2.99291 2.64991C3.05741 2.58549 3.09369 2.49808 3.09375 2.40691V1.71895H5.15625V2.40645C5.15619 2.49762 5.19235 2.58508 5.25677 2.64958C5.32119 2.71409 5.4086 2.75037 5.49977 2.75043C5.59094 2.75049 5.6784 2.71433 5.74291 2.64991C5.80742 2.58549 5.84369 2.49808 5.84375 2.40691V1.71895H7.90625V2.40645C7.90619 2.49762 7.94235 2.58508 8.00677 2.64958C8.07119 2.71409 8.1586 2.75037 8.24977 2.75043C8.34094 2.75049 8.4284 2.71433 8.49291 2.64991C8.55741 2.58549 8.59369 2.49808 8.59375 2.40691V1.71895H10.0833C10.144 1.71907 10.2021 1.74321 10.2449 1.78607C10.2878 1.82894 10.3119 1.88704 10.312 1.94766L10.3125 10.0831Z" fill="#035397"/>
<path d="M2.40625 4.125H3.78125V5.15625H2.40625V4.125ZM2.40625 5.84375H3.78125V6.875H2.40625V5.84375ZM2.40625 7.5625H3.78125V8.59375H2.40625V7.5625ZM4.8125 7.5625H6.1875V8.59375H4.8125V7.5625ZM4.8125 5.84375H6.1875V6.875H4.8125V5.84375ZM4.8125 4.125H6.1875V5.15625H4.8125V4.125ZM7.21875 7.5625H8.59375V8.59375H7.21875V7.5625ZM7.21875 5.84375H8.59375V6.875H7.21875V5.84375ZM7.21875 4.125H8.59375V5.15625H7.21875V4.125Z" fill="#035397"/>
</g>
<defs>
<clipPath id="clip0_49_418">
<rect width="11" height="11" fill="white"/>
</clipPath>
</defs>
</svg>
