<svg width="108" height="108" viewBox="0 0 108 108" fill="none" xmlns="http://www.w3.org/2000/svg">
<circle opacity="0.2" cx="54" cy="54" r="54" fill="#36AE7C"/>
<circle cx="54" cy="54" r="36" fill="#36AE7C"/>
<path d="M67.3007 43.9836C66.8677 43.9965 66.4568 44.1775 66.1549 44.4882L48.9999 61.6431L43.5117 56.1549C43.3581 55.9949 43.1741 55.8672 42.9706 55.7792C42.767 55.6912 42.548 55.6448 42.3262 55.6425C42.1045 55.6403 41.8846 55.6823 41.6793 55.7661C41.474 55.8499 41.2875 55.9738 41.1307 56.1306C40.9739 56.2874 40.8499 56.4739 40.7661 56.6792C40.6823 56.8845 40.6403 57.1045 40.6425 57.3262C40.6448 57.548 40.6913 57.767 40.7792 57.9706C40.8672 58.1741 40.9949 58.3581 41.1549 58.5116L47.8216 65.1783C48.1341 65.4907 48.558 65.6663 48.9999 65.6663C49.4419 65.6663 49.8658 65.4907 50.1783 65.1783L68.5117 46.845C68.7525 46.6109 68.917 46.3095 68.9836 45.9803C69.0502 45.6511 69.0158 45.3094 68.8849 45.0001C68.754 44.6908 68.5327 44.4282 68.25 44.2469C67.9673 44.0655 67.6364 43.9737 67.3007 43.9836Z" fill="white"/>
</svg>
