<svg width="26" height="26" viewBox="0 0 26 26" fill="none" xmlns="http://www.w3.org/2000/svg">
<path d="M3.25 0C2.38805 0 1.5614 0.34241 0.951903 0.951903C0.34241 1.5614 0 2.38805 0 3.25L0 22.75C0 23.612 0.34241 24.4386 0.951903 25.0481C1.5614 25.6576 2.38805 26 3.25 26H22.75C23.612 26 24.4386 25.6576 25.0481 25.0481C25.6576 24.4386 26 23.612 26 22.75V3.25C26 2.38805 25.6576 1.5614 25.0481 0.951903C24.4386 0.34241 23.612 0 22.75 0L3.25 0ZM4.0625 8.125H21.9375C22.153 8.125 22.3597 8.2106 22.512 8.36298C22.6644 8.51535 22.75 8.72201 22.75 8.9375C22.75 9.15299 22.6644 9.35965 22.512 9.51202C22.3597 9.6644 22.153 9.75 21.9375 9.75H4.0625C3.84701 9.75 3.64035 9.6644 3.48798 9.51202C3.3356 9.35965 3.25 9.15299 3.25 8.9375C3.25 8.72201 3.3356 8.51535 3.48798 8.36298C3.64035 8.2106 3.84701 8.125 4.0625 8.125ZM6.5 13.8125C6.5 13.597 6.5856 13.3903 6.73798 13.238C6.89035 13.0856 7.09701 13 7.3125 13H18.6875C18.903 13 19.1097 13.0856 19.262 13.238C19.4144 13.3903 19.5 13.597 19.5 13.8125C19.5 14.028 19.4144 14.2347 19.262 14.387C19.1097 14.5394 18.903 14.625 18.6875 14.625H7.3125C7.09701 14.625 6.89035 14.5394 6.73798 14.387C6.5856 14.2347 6.5 14.028 6.5 13.8125ZM9.75 18.6875C9.75 18.472 9.8356 18.2653 9.98798 18.113C10.1403 17.9606 10.347 17.875 10.5625 17.875H15.4375C15.653 17.875 15.8597 17.9606 16.012 18.113C16.1644 18.2653 16.25 18.472 16.25 18.6875C16.25 18.903 16.1644 19.1097 16.012 19.262C15.8597 19.4144 15.653 19.5 15.4375 19.5H10.5625C10.347 19.5 10.1403 19.4144 9.98798 19.262C9.8356 19.1097 9.75 18.903 9.75 18.6875Z" fill="#001E6C"/>
</svg>
