<svg width="24" height="24" viewBox="0 0 24 24" fill="none" xmlns="http://www.w3.org/2000/svg">
<path d="M9.99998 5.3418C9.7441 5.3418 9.48795 5.44122 9.29294 5.63672L3.63669 11.293C3.24569 11.684 3.24569 12.317 3.63669 12.707L9.29294 18.3633C9.68394 18.7543 10.317 18.7543 10.707 18.3633L10.7929 18.2773C11.1839 17.8863 11.1839 17.2533 10.7929 16.8633L6.92966 13H20C20.552 13 21 12.552 21 12C21 11.448 20.552 11 20 11H6.92966L10.7929 7.13672C11.1839 6.74572 11.1839 6.11266 10.7929 5.72266L10.707 5.63672C10.5115 5.44122 10.2559 5.3418 9.99998 5.3418Z" fill="white"/>
</svg>
