<svg width="41" height="41" viewBox="0 0 41 41" fill="none" xmlns="http://www.w3.org/2000/svg">
<path d="M20.4829 3.41663C11.0529 3.41663 3.41669 11.07 3.41669 20.5C3.41669 29.93 11.0529 37.5833 20.4829 37.5833C29.93 37.5833 37.5834 29.93 37.5834 20.5C37.5834 11.07 29.93 3.41663 20.4829 3.41663ZM20.5 34.1666C12.9492 34.1666 6.83335 28.0508 6.83335 20.5C6.83335 12.9491 12.9492 6.83329 20.5 6.83329C28.0509 6.83329 34.1667 12.9491 34.1667 20.5C34.1667 28.0508 28.0509 34.1666 20.5 34.1666ZM21.3542 11.9583H18.7917V22.2083L27.7604 27.5895L29.0417 25.4883L21.3542 20.927V11.9583Z" fill="#035397"/>
</svg>
